<svg xmlns="http://www.w3.org/2000/svg" width="422.393px" height="33.573px" viewBox="0 0 422.393 33.573">
<g class="svg-main-nav-logo" style="fill:#373737;">
<path d="M31.036,33.28h-4.782V7.368h-0.098L15.908,20.251h-0.781L4.88,7.368H4.782V33.28H0V0h4.49l11.028,13.663L26.595,0h4.441V33.28z"/>
<path d="M57.677,33.28h-4.782V0h4.782V33.28z"/>
<path d="M110.476,33.28h-4.099L84.125,7.661V33.28h-4.49V0h3.807l22.544,25.765V0h4.489V33.28z"/>
<path d="M157.417,4.294h-11.516V33.28h-4.782V4.294h-11.516V0h27.814V4.294z"/>
<path d="M209.145,33.573h-0.976L193.774,0h4.782l10.003,23.374L218.514,0h4.733L209.145,33.573z"/>
<path d="M260.43,4.294h-14.103v10.052h13.614v4.294h-13.614v10.345h14.541v4.294h-19.323V0h18.885V4.294z"/>
<path d="M285.316,28.986h15.029v4.294h-19.812V0h4.782V28.986z"/>
<path d="M325.97,33.573h-0.976L310.599,0h4.782l10.004,23.374L335.339,0h4.733L325.97,33.573z"/>
<path d="M377.255,4.294h-14.103v10.052h13.614v4.294h-13.614v10.345h14.541v4.294h-19.323V0h18.885V4.294z"/>
<path d="M422.393,4.294h-11.517V33.28h-4.782V4.294h-11.517V0h27.816V4.294z"/>
</g>
</svg>