<?xml version="1.0" standalone="no"?>
<!DOCTYPE svg PUBLIC "-//W3C//DTD SVG 20010904//EN"
 "http://www.w3.org/TR/2001/REC-SVG-20010904/DTD/svg10.dtd">
<svg version="1.0" xmlns="http://www.w3.org/2000/svg"
 width="70.000000pt" height="70.000000pt" viewBox="0 0 70.000000 70.000000"
 preserveAspectRatio="xMidYMid meet">
<metadata>
Created by potrace 1.11, written by Peter Selinger 2001-2013
</metadata>
<g transform="translate(0.000000,70.000000) scale(0.100000,-0.100000)"
fill="#000000" stroke="none">
<path d="M0 350 l0 -350 350 0 350 0 0 350 0 350 -350 0 -350 0 0 -350z m140
115 c28 -36 53 -65 55 -65 2 0 27 29 56 65 37 46 59 65 76 65 l23 0 0 -165 0
-165 -25 0 -25 0 0 128 0 127 -28 -35 c-15 -19 -39 -48 -53 -64 l-25 -29 -50
63 -49 63 -3 -127 -3 -126 -24 0 -25 0 0 165 0 165 24 0 c18 0 38 -17 76 -65z
m338 -47 c25 -59 48 -105 51 -103 4 2 26 51 51 109 38 93 47 106 68 106 13 0
22 -4 20 -9 -23 -63 -134 -321 -139 -321 -3 0 -38 75 -77 166 -70 164 -70 165
-45 162 23 -3 32 -17 71 -110z"/>
</g>
</svg>
